# xmcd CD database file
# Copyright (C) 1993-1998 Ti Kan
#
# Track frame offsets:
#	150
#	18285
#	39387
#
# Disc length: 820 seconds
#
# Revision: 1
# Processed by: cddbd v1.4b41PL1 Copyright (c) Steve Scherf et al.
# Submitted via: CDValet v3.01 - Copyright (c) 1997 Greg Leichner
#
DISCID=17033203
DTITLE=Joan Osborne - Blue Million Miles
DYEAR=1900
DGENRE=
TTITLE0=His Eyes are a Blue Million Miles
TTITLE1=Billie Listens (To Your Heartbeat)
TTITLE2=What You Gonna Do
EXTD=
EXTT0=
EXTT1=
EXTT2=
PLAYORDER=
